<?xml version="1.0" encoding="utf-8"?>
<!-- Generator: Adobe Illustrator 28.0.0, SVG Export Plug-In . SVG Version: 6.00 Build 0)  -->
<svg version="1.1" xmlns="http://www.w3.org/2000/svg" xmlns:xlink="http://www.w3.org/1999/xlink" x="0px" y="0px"
	 viewBox="0 0 56.7 57.7" style="enable-background:new 0 0 56.7 57.7;" xml:space="preserve">
<style type="text/css">
	.st0{fill:none;stroke:#FFC20E;stroke-miterlimit:10;}
	.st1{fill:#FFC20E;stroke:#FFC20E;stroke-width:0.5;stroke-linecap:round;stroke-linejoin:round;stroke-miterlimit:10;}
	.st2{fill:none;stroke:#FFC20E;stroke-width:0.5;stroke-linecap:round;stroke-linejoin:round;stroke-miterlimit:10;}
	.st3{fill:#FFC20E;}
	.st4{font-family:'Futura';}
	.st5{font-size:7.6725px;}
</style>
<g id="Layer_1">
	<path d="M52.4,57.7H4.3c-2.3,0-4.3-1.9-4.3-4.3V4.3C0,1.9,1.9,0,4.3,0h48.2c2.3,0,4.3,1.9,4.3,4.3v49.2
		C56.7,55.8,54.8,57.7,52.4,57.7z"/>
	<circle class="st0" cx="28.3" cy="28.9" r="25.5"/>
	<g>
		<g>
			<text transform="matrix(1 0 0 1.0101 32.7462 23.2706)" class="st3 st4 st5">E</text>
		</g>
		<g>
			<polygon class="st2" points="19.8,18.2 14.6,18.2 14.6,15 19.8,15 22,16.6 			"/>
			<polygon class="st2" points="24.8,22.3 14.6,22.3 14.6,19.1 24.8,19.1 27,20.7 			"/>
			<polygon class="st2" points="28.1,26.4 14.6,26.4 14.6,23.2 28.1,23.2 30.4,24.8 			"/>
			<polygon class="st2" points="31.5,30.5 14.6,30.5 14.6,27.3 31.5,27.3 33.7,28.9 			"/>
			<polygon class="st1" points="34.3,34.5 14.6,34.5 14.6,31.3 34.3,31.3 36.5,32.9 			"/>
			<polygon class="st2" points="37.6,38.6 14.6,38.6 14.6,35.4 37.6,35.4 39.9,37 			"/>
			<polygon class="st2" points="39.9,42.7 14.6,42.7 14.6,39.5 39.9,39.5 42.1,41.1 			"/>
		</g>
	</g>
</g>
<g id="Layer_2">
</g>
<g id="Layer_3">
</g>
</svg>
