<?xml version="1.0" encoding="utf-8"?>
<!-- Generator: Adobe Illustrator 28.0.0, SVG Export Plug-In . SVG Version: 6.00 Build 0)  -->
<svg version="1.1" xmlns="http://www.w3.org/2000/svg" xmlns:xlink="http://www.w3.org/1999/xlink" x="0px" y="0px"
	 viewBox="0 0 56.7 56.7" style="enable-background:new 0 0 56.7 56.7;" xml:space="preserve">
<style type="text/css">
	.st0{fill:none;stroke:#FFC20E;stroke-miterlimit:10;}
	.st1{fill:none;stroke:#FFC20E;stroke-linecap:round;stroke-linejoin:round;stroke-miterlimit:10;}
	.st2{fill:none;stroke:#FFC20E;stroke-linecap:round;stroke-linejoin:round;}
	.st3{fill:#FFC20E;}
	.st4{fill:#FFFFFF;stroke:#FFC20E;stroke-width:0.5;stroke-linecap:round;stroke-linejoin:round;stroke-miterlimit:10;}
	.st5{fill:none;stroke:#FFC20E;stroke-width:0.5;stroke-linecap:round;stroke-linejoin:round;stroke-miterlimit:10;}
	.st6{stroke:#FFC20E;stroke-linecap:round;stroke-linejoin:round;stroke-miterlimit:10;}
	.st7{fill:#FFC20E;stroke:#FFC20E;stroke-linecap:round;stroke-linejoin:round;stroke-miterlimit:10;}
	.st8{fill:#FFC20E;stroke:#FFC20E;stroke-miterlimit:10;}
	.st9{fill:#FEC214;}
	.st10{fill:#FFC20E;stroke:#FFC20E;stroke-width:0.8;stroke-linecap:round;stroke-linejoin:round;stroke-miterlimit:10;}
	.st11{fill:none;stroke:#FFC20E;stroke-width:0.8;stroke-linecap:round;stroke-linejoin:round;stroke-miterlimit:10;}
	.st12{fill:none;stroke:#FFC20E;stroke-width:2;stroke-linecap:round;stroke-linejoin:round;stroke-miterlimit:10;}
	.st13{fill:none;stroke:#FFC20E;stroke-width:0.25;stroke-linecap:round;stroke-linejoin:round;stroke-miterlimit:10;}
	.st14{fill:none;stroke:#FFFFFF;stroke-linecap:round;stroke-linejoin:round;stroke-miterlimit:10;}
	.st15{fill:none;stroke:#FFFFFF;stroke-linecap:round;stroke-linejoin:round;}
	.st16{fill:none;stroke:#FFFFFF;stroke-linecap:round;stroke-linejoin:round;stroke-dasharray:5.4689,4.5574;}
	.st17{fill:#FFC20E;stroke:#FFC20E;stroke-width:0.5;stroke-linecap:round;stroke-linejoin:round;stroke-miterlimit:10;}
	.st18{fill:none;stroke:#000000;stroke-miterlimit:10;}
	.st19{fill:#CF2026;stroke:#000000;stroke-miterlimit:10;}
	.st20{stroke:#000000;stroke-miterlimit:10;}
	.st21{fill:#E57625;stroke:#000000;stroke-miterlimit:10;}
	.st22{fill:#FFD108;stroke:#000000;stroke-miterlimit:10;}
	.st23{fill:#50B848;stroke:#000000;stroke-miterlimit:10;}
	.st24{fill:none;stroke:#FFC20E;stroke-width:0.5;stroke-linecap:round;stroke-linejoin:round;}
	.st25{fill:none;stroke:#FFC20E;stroke-width:0.5;stroke-linecap:round;stroke-linejoin:round;stroke-dasharray:2.0564,2.0564;}
	.st26{fill:none;stroke:#FFC20E;stroke-linejoin:round;stroke-miterlimit:10;}
	.st27{fill:none;stroke:#FFC20E;stroke-linecap:round;stroke-miterlimit:10;}
	.st28{fill:none;stroke:#FEC214;stroke-miterlimit:10;}
	.st29{fill:#FEC214;stroke:#FEC214;stroke-miterlimit:10;}
	.st30{fill:none;}
	.st31{fill:none;stroke:#FEC214;stroke-width:2;stroke-miterlimit:10;}
	.st32{fill:none;stroke:#FFC20E;stroke-width:0.8;stroke-linecap:round;stroke-linejoin:round;}
	.st33{fill:url(#SVGID_1_);}
	.st34{fill:none;stroke:#FEC214;stroke-width:0.25;stroke-miterlimit:10;}
	.st35{fill:none;stroke:#FFC20E;stroke-width:0.5;stroke-miterlimit:10;}
	.st36{fill:none;stroke:#FFC20E;stroke-width:0.25;stroke-miterlimit:10;}
	.st37{clip-path:url(#SVGID_00000078747050434588563680000000049554328819328935_);}
	.st38{fill:none;stroke:#000000;stroke-width:0.5;stroke-linecap:round;stroke-linejoin:round;stroke-miterlimit:10;}
	.st39{fill:none;stroke:#FFC20E;stroke-width:0.5;stroke-miterlimit:10;stroke-dasharray:0.9467,0.9467;}
	.st40{fill:none;stroke:#FFC20E;stroke-width:0.5;stroke-linecap:round;stroke-miterlimit:10;}
	.st41{fill:none;stroke:#FFC20E;stroke-width:0.25;stroke-linecap:round;stroke-miterlimit:10;}
	.st42{fill:none;stroke:#FFC20E;stroke-width:0.5;stroke-linecap:round;stroke-linejoin:round;stroke-dasharray:3.8044,3.8044;}
	.st43{fill:none;stroke:#FFC20E;stroke-width:0.5;stroke-linecap:round;stroke-linejoin:round;stroke-dasharray:4.0829,4.0829;}
	.st44{fill:#E6B00F;}
	.st45{fill:#FFD400;}
	.st46{fill:none;stroke:#FFFFFF;stroke-width:0.5;stroke-linecap:round;stroke-linejoin:round;stroke-miterlimit:10;}
	.st47{fill:none;stroke:#FFC20E;stroke-width:0.4;stroke-miterlimit:10;}
	.st48{fill:#FFC20E;stroke:#FFC20E;stroke-width:0.4;stroke-miterlimit:10;}
	.st49{fill:#FFFFFF;}
	.st50{clip-path:url(#SVGID_00000170249273616454774430000007437399269830274184_);fill:#EB3E26;}
	.st51{clip-path:url(#SVGID_00000170249273616454774430000007437399269830274184_);fill:#EB5326;}
	.st52{clip-path:url(#SVGID_00000170249273616454774430000007437399269830274184_);fill:#EC6527;}
	.st53{clip-path:url(#SVGID_00000170249273616454774430000007437399269830274184_);fill:#EB7426;}
	.st54{clip-path:url(#SVGID_00000170249273616454774430000007437399269830274184_);fill:#E58327;}
	.st55{clip-path:url(#SVGID_00000170249273616454774430000007437399269830274184_);fill:#E39025;}
	.st56{clip-path:url(#SVGID_00000170249273616454774430000007437399269830274184_);fill:#E39E27;}
	.st57{clip-path:url(#SVGID_00000170249273616454774430000007437399269830274184_);fill:#E1AB26;}
	.st58{clip-path:url(#SVGID_00000170249273616454774430000007437399269830274184_);fill:#DBC525;}
	.st59{clip-path:url(#SVGID_00000170249273616454774430000007437399269830274184_);fill:#D9D324;}
	.st60{clip-path:url(#SVGID_00000170249273616454774430000007437399269830274184_);fill:#D6DF28;}
</style>
<g id="Layer_1">
	<path d="M52.4,56.7H3.6c-2,0-3.6-1.6-3.6-3.6V3.6C0,1.6,1.6,0,3.6,0h49.5c2,0,3.6,1.6,3.6,3.6v48.8C56.7,54.8,54.8,56.7,52.4,56.7z
		"/>
	<g>
		<g>
			<path class="st28" d="M50,28.7c0.2,0,0.4,0,0.6,0.1V18.4c-0.2,0-0.4,0.1-0.6,0.1c-1.7,0-3.1-1.4-3.1-3.1c0,0,0,0,0-0.1
				c-3.6,0.8-9.6,1.8-16.7,1.8c-7.6,0-14,1.3-17.5,2.2c0.1,0.3,0.2,0.7,0.2,1.1c0,1.7-1.4,3.1-3.1,3.1v10.5c0.3-0.1,0.7-0.2,1-0.2
				c1.7,0,3.1,1.4,3.1,3.1c0,0,0,0.1,0,0.1c3.7-0.9,9.7-2,16.2-2c7,0,13.3-1.1,17-1.9c-0.2-0.4-0.3-0.9-0.3-1.3
				C46.9,30.1,48.3,28.7,50,28.7z"/>
			<path class="st29" d="M50,18.4c0.2,0,0.4,0,0.6-0.1v-4.1c0,0-1.3,0.4-3.7,1c0,0,0,0,0,0.1C46.9,17,48.3,18.4,50,18.4z"/>
			<path class="st29" d="M50.5,28.8c-0.2,0-0.4-0.1-0.6-0.1c-1.7,0-3.1,1.4-3.1,3.1c0,0.5,0.1,0.9,0.3,1.3c2.1-0.5,3.3-0.8,3.3-0.8
				V28.8z"/>
			<path class="st29" d="M12.9,20.5c0-0.4-0.1-0.8-0.2-1.1c-1.8,0.5-2.9,0.9-2.9,0.9v3.4C11.5,23.6,12.9,22.2,12.9,20.5z"/>
			<path class="st29" d="M10.8,33.9c-0.4,0-0.7,0.1-1,0.2v4.1c0,0,1.5-0.5,4.1-1.1c0,0,0-0.1,0-0.1C13.9,35.3,12.6,33.9,10.8,33.9z"
				/>
			<path class="st28" d="M6.2,24.4v3.4v10.5v4.1c0,0,1.5-0.5,4.1-1.1c3.7-0.9,9.7-2,16.2-2c7,0,13.3-1.1,17-1.9"/>
		</g>
		<circle class="st9" cx="29.9" cy="26.3" r="4.6"/>
	</g>
</g>
<g id="Layer_2">
</g>
<g id="Layer_3">
</g>
</svg>
