<?xml version="1.0" encoding="utf-8"?>
<!-- Generator: Adobe Illustrator 28.0.0, SVG Export Plug-In . SVG Version: 6.00 Build 0)  -->
<svg version="1.1" xmlns="http://www.w3.org/2000/svg" xmlns:xlink="http://www.w3.org/1999/xlink" x="0px" y="0px"
	 viewBox="0 0 56.7 56.7" style="enable-background:new 0 0 56.7 56.7;" xml:space="preserve">
<style type="text/css">
	.st0{fill:none;stroke:#FFC20E;stroke-miterlimit:10;}
	.st1{fill:none;stroke:#FFC20E;stroke-linecap:round;stroke-linejoin:round;stroke-miterlimit:10;}
	.st2{fill:none;stroke:#FFC20E;stroke-linecap:round;stroke-linejoin:round;}
	.st3{fill:#FFC20E;}
	.st4{fill:#FFFFFF;stroke:#FFC20E;stroke-width:0.5;stroke-linecap:round;stroke-linejoin:round;stroke-miterlimit:10;}
	.st5{fill:none;stroke:#FFC20E;stroke-width:0.5;stroke-linecap:round;stroke-linejoin:round;stroke-miterlimit:10;}
	.st6{stroke:#FFC20E;stroke-linecap:round;stroke-linejoin:round;stroke-miterlimit:10;}
	.st7{fill:#FFC20E;stroke:#FFC20E;stroke-linecap:round;stroke-linejoin:round;stroke-miterlimit:10;}
	.st8{fill:#FFC20E;stroke:#FFC20E;stroke-miterlimit:10;}
	.st9{fill:#FEC214;}
	.st10{fill:#FFC20E;stroke:#FFC20E;stroke-width:0.8;stroke-linecap:round;stroke-linejoin:round;stroke-miterlimit:10;}
	.st11{fill:none;stroke:#FFC20E;stroke-width:0.8;stroke-linecap:round;stroke-linejoin:round;stroke-miterlimit:10;}
	.st12{fill:none;stroke:#FFC20E;stroke-width:2;stroke-linecap:round;stroke-linejoin:round;stroke-miterlimit:10;}
	.st13{fill:none;stroke:#FFC20E;stroke-width:0.25;stroke-linecap:round;stroke-linejoin:round;stroke-miterlimit:10;}
	.st14{fill:none;stroke:#FFFFFF;stroke-linecap:round;stroke-linejoin:round;stroke-miterlimit:10;}
	.st15{fill:none;stroke:#FFFFFF;stroke-linecap:round;stroke-linejoin:round;}
	.st16{fill:none;stroke:#FFFFFF;stroke-linecap:round;stroke-linejoin:round;stroke-dasharray:5.4689,4.5574;}
	.st17{fill:#FFC20E;stroke:#FFC20E;stroke-width:0.5;stroke-linecap:round;stroke-linejoin:round;stroke-miterlimit:10;}
	.st18{fill:none;stroke:#000000;stroke-miterlimit:10;}
	.st19{fill:#CF2026;stroke:#000000;stroke-miterlimit:10;}
	.st20{stroke:#000000;stroke-miterlimit:10;}
	.st21{fill:#E57625;stroke:#000000;stroke-miterlimit:10;}
	.st22{fill:#FFD108;stroke:#000000;stroke-miterlimit:10;}
	.st23{fill:#50B848;stroke:#000000;stroke-miterlimit:10;}
	.st24{fill:none;stroke:#FFC20E;stroke-width:0.5;stroke-linecap:round;stroke-linejoin:round;}
	.st25{fill:none;stroke:#FFC20E;stroke-width:0.5;stroke-linecap:round;stroke-linejoin:round;stroke-dasharray:2.0564,2.0564;}
	.st26{fill:none;stroke:#FFC20E;stroke-linejoin:round;stroke-miterlimit:10;}
	.st27{fill:none;stroke:#FFC20E;stroke-linecap:round;stroke-miterlimit:10;}
	.st28{fill:none;stroke:#FEC214;stroke-miterlimit:10;}
	.st29{fill:#FEC214;stroke:#FEC214;stroke-miterlimit:10;}
	.st30{fill:none;}
	.st31{fill:none;stroke:#FEC214;stroke-width:2;stroke-miterlimit:10;}
	.st32{fill:none;stroke:#FFC20E;stroke-width:0.8;stroke-linecap:round;stroke-linejoin:round;}
	.st33{fill:url(#SVGID_1_);}
	.st34{fill:none;stroke:#FEC214;stroke-width:0.25;stroke-miterlimit:10;}
	.st35{fill:none;stroke:#FFC20E;stroke-width:0.5;stroke-miterlimit:10;}
	.st36{fill:none;stroke:#FFC20E;stroke-width:0.25;stroke-miterlimit:10;}
	.st37{clip-path:url(#SVGID_00000092447122984856658150000014230288576253928611_);}
	.st38{fill:none;stroke:#000000;stroke-width:0.5;stroke-linecap:round;stroke-linejoin:round;stroke-miterlimit:10;}
	.st39{fill:none;stroke:#FFC20E;stroke-width:0.5;stroke-miterlimit:10;stroke-dasharray:0.9467,0.9467;}
	.st40{fill:none;stroke:#FFC20E;stroke-width:0.5;stroke-linecap:round;stroke-miterlimit:10;}
	.st41{fill:none;stroke:#FFC20E;stroke-width:0.25;stroke-linecap:round;stroke-miterlimit:10;}
	.st42{fill:none;stroke:#FFC20E;stroke-width:0.5;stroke-linecap:round;stroke-linejoin:round;stroke-dasharray:3.8044,3.8044;}
	.st43{fill:none;stroke:#FFC20E;stroke-width:0.5;stroke-linecap:round;stroke-linejoin:round;stroke-dasharray:4.0829,4.0829;}
	.st44{fill:#E6B00F;}
	.st45{fill:#FFD400;}
	.st46{fill:none;stroke:#FFFFFF;stroke-width:0.5;stroke-linecap:round;stroke-linejoin:round;stroke-miterlimit:10;}
	.st47{fill:none;stroke:#FFC20E;stroke-width:0.4;stroke-miterlimit:10;}
	.st48{fill:#FFC20E;stroke:#FFC20E;stroke-width:0.4;stroke-miterlimit:10;}
	.st49{fill:#FFFFFF;}
	.st50{clip-path:url(#SVGID_00000005985251774977027330000003500004444566634887_);fill:#EB3E26;}
	.st51{clip-path:url(#SVGID_00000005985251774977027330000003500004444566634887_);fill:#EB5326;}
	.st52{clip-path:url(#SVGID_00000005985251774977027330000003500004444566634887_);fill:#EC6527;}
	.st53{clip-path:url(#SVGID_00000005985251774977027330000003500004444566634887_);fill:#EB7426;}
	.st54{clip-path:url(#SVGID_00000005985251774977027330000003500004444566634887_);fill:#E58327;}
	.st55{clip-path:url(#SVGID_00000005985251774977027330000003500004444566634887_);fill:#E39025;}
	.st56{clip-path:url(#SVGID_00000005985251774977027330000003500004444566634887_);fill:#E39E27;}
	.st57{clip-path:url(#SVGID_00000005985251774977027330000003500004444566634887_);fill:#E1AB26;}
	.st58{clip-path:url(#SVGID_00000005985251774977027330000003500004444566634887_);fill:#DBC525;}
	.st59{clip-path:url(#SVGID_00000005985251774977027330000003500004444566634887_);fill:#D9D324;}
	.st60{clip-path:url(#SVGID_00000005985251774977027330000003500004444566634887_);fill:#D6DF28;}
</style>
<g id="Layer_1">
	<path d="M52.4,56.7H3.6c-2,0-3.6-1.6-3.6-3.6V3.6C0,1.6,1.6,0,3.6,0h49.5c2,0,3.6,1.6,3.6,3.6v48.8C56.7,54.8,54.8,56.7,52.4,56.7z
		"/>
	<g>
		<path class="st9" d="M28.3,43c-4.8,0-9.3-1.4-13.3-4.1c-3.9-2.6-6.7-6.2-8.5-10.6c1.8-4.4,4.7-7.9,8.5-10.6
			c4-2.7,8.4-4.1,13.3-4.1c4.8,0,9.3,1.4,13.3,4.1c3.9,2.6,6.7,6.2,8.5,10.6c-1.8,4.4-4.7,7.9-8.5,10.6C37.6,41.6,33.2,43,28.3,43z
			 M28.3,16.1c-4,0-7.8,1.1-11.2,3.2c-3.4,2.1-6,5-7.8,8.6l-0.2,0.4l0.2,0.4c1.8,3.6,4.4,6.5,7.8,8.6c3.4,2.1,7.1,3.2,11.2,3.2
			s7.8-1.1,11.2-3.2c3.4-2.1,6-5,7.8-8.6l0.2-0.4L47.3,28c-1.8-3.6-4.4-6.5-7.8-8.6C36.1,17.2,32.4,16.1,28.3,16.1z M28.3,36.8
			c-2.4,0-4.3-0.8-6-2.5c-1.7-1.7-2.5-3.6-2.5-6s0.8-4.3,2.5-6c1.7-1.7,3.6-2.5,6-2.5s4.3,0.8,6,2.5c1.7,1.7,2.5,3.6,2.5,6
			s-0.8,4.3-2.5,6C32.7,36,30.7,36.8,28.3,36.8z M28.3,21.9c-1.8,0-3.3,0.6-4.6,1.9c-1.2,1.2-1.9,2.8-1.9,4.6s0.6,3.3,1.9,4.6
			c1.2,1.2,2.8,1.9,4.6,1.9s3.3-0.6,4.6-1.9c1.2-1.2,1.9-2.8,1.9-4.6s-0.6-3.3-1.9-4.6C31.7,22.6,30.1,21.9,28.3,21.9z"/>
	</g>
</g>
<g id="Layer_2">
</g>
<g id="Layer_3">
</g>
</svg>
