<?xml version="1.0" encoding="utf-8"?>
<!-- Generator: Adobe Illustrator 28.0.0, SVG Export Plug-In . SVG Version: 6.00 Build 0)  -->
<svg version="1.1" xmlns="http://www.w3.org/2000/svg" xmlns:xlink="http://www.w3.org/1999/xlink" x="0px" y="0px"
	 viewBox="0 0 56.7 56.7" style="enable-background:new 0 0 56.7 56.7;" xml:space="preserve">
<style type="text/css">
	.st0{fill:none;stroke:#FFC20E;stroke-miterlimit:10;}
	.st1{fill:none;stroke:#FFC20E;stroke-linecap:round;stroke-linejoin:round;stroke-miterlimit:10;}
	.st2{fill:none;stroke:#FFC20E;stroke-linecap:round;stroke-linejoin:round;}
	.st3{fill:#FFC20E;}
	.st4{fill:#FFFFFF;stroke:#FFC20E;stroke-width:0.5;stroke-linecap:round;stroke-linejoin:round;stroke-miterlimit:10;}
	.st5{fill:none;stroke:#FFC20E;stroke-width:0.5;stroke-linecap:round;stroke-linejoin:round;stroke-miterlimit:10;}
	.st6{stroke:#FFC20E;stroke-linecap:round;stroke-linejoin:round;stroke-miterlimit:10;}
	.st7{fill:#FFC20E;stroke:#FFC20E;stroke-linecap:round;stroke-linejoin:round;stroke-miterlimit:10;}
	.st8{fill:#FFC20E;stroke:#FFC20E;stroke-miterlimit:10;}
	.st9{fill:#FEC214;}
	.st10{fill:#FFC20E;stroke:#FFC20E;stroke-width:0.8;stroke-linecap:round;stroke-linejoin:round;stroke-miterlimit:10;}
	.st11{fill:none;stroke:#FFC20E;stroke-width:0.8;stroke-linecap:round;stroke-linejoin:round;stroke-miterlimit:10;}
	.st12{fill:none;stroke:#FFC20E;stroke-width:2;stroke-linecap:round;stroke-linejoin:round;stroke-miterlimit:10;}
	.st13{fill:none;stroke:#FFC20E;stroke-width:0.25;stroke-linecap:round;stroke-linejoin:round;stroke-miterlimit:10;}
	.st14{fill:none;stroke:#FFFFFF;stroke-linecap:round;stroke-linejoin:round;stroke-miterlimit:10;}
	.st15{fill:none;stroke:#FFFFFF;stroke-linecap:round;stroke-linejoin:round;}
	.st16{fill:none;stroke:#FFFFFF;stroke-linecap:round;stroke-linejoin:round;stroke-dasharray:5.4689,4.5574;}
	.st17{fill:#FFC20E;stroke:#FFC20E;stroke-width:0.5;stroke-linecap:round;stroke-linejoin:round;stroke-miterlimit:10;}
	.st18{fill:none;stroke:#000000;stroke-miterlimit:10;}
	.st19{fill:#CF2026;stroke:#000000;stroke-miterlimit:10;}
	.st20{stroke:#000000;stroke-miterlimit:10;}
	.st21{fill:#E57625;stroke:#000000;stroke-miterlimit:10;}
	.st22{fill:#FFD108;stroke:#000000;stroke-miterlimit:10;}
	.st23{fill:#50B848;stroke:#000000;stroke-miterlimit:10;}
	.st24{fill:none;stroke:#FFC20E;stroke-width:0.5;stroke-linecap:round;stroke-linejoin:round;}
	.st25{fill:none;stroke:#FFC20E;stroke-width:0.5;stroke-linecap:round;stroke-linejoin:round;stroke-dasharray:2.0564,2.0564;}
	.st26{fill:none;stroke:#FFC20E;stroke-linejoin:round;stroke-miterlimit:10;}
	.st27{fill:none;stroke:#FFC20E;stroke-linecap:round;stroke-miterlimit:10;}
	.st28{fill:none;stroke:#FEC214;stroke-miterlimit:10;}
	.st29{fill:#FEC214;stroke:#FEC214;stroke-miterlimit:10;}
	.st30{fill:none;}
	.st31{fill:none;stroke:#FEC214;stroke-width:2;stroke-miterlimit:10;}
	.st32{fill:none;stroke:#FFC20E;stroke-width:0.8;stroke-linecap:round;stroke-linejoin:round;}
	.st33{fill:url(#SVGID_1_);}
	.st34{fill:none;stroke:#FEC214;stroke-width:0.25;stroke-miterlimit:10;}
	.st35{fill:none;stroke:#FFC20E;stroke-width:0.5;stroke-miterlimit:10;}
	.st36{fill:none;stroke:#FFC20E;stroke-width:0.25;stroke-miterlimit:10;}
	.st37{clip-path:url(#SVGID_00000045592656897383927740000010807078822924786590_);}
	.st38{fill:none;stroke:#000000;stroke-width:0.5;stroke-linecap:round;stroke-linejoin:round;stroke-miterlimit:10;}
	.st39{fill:none;stroke:#FFC20E;stroke-width:0.5;stroke-miterlimit:10;stroke-dasharray:0.9467,0.9467;}
	.st40{fill:none;stroke:#FFC20E;stroke-width:0.5;stroke-linecap:round;stroke-miterlimit:10;}
	.st41{fill:none;stroke:#FFC20E;stroke-width:0.25;stroke-linecap:round;stroke-miterlimit:10;}
	.st42{fill:none;stroke:#FFC20E;stroke-width:0.5;stroke-linecap:round;stroke-linejoin:round;stroke-dasharray:3.8044,3.8044;}
	.st43{fill:none;stroke:#FFC20E;stroke-width:0.5;stroke-linecap:round;stroke-linejoin:round;stroke-dasharray:4.0829,4.0829;}
	.st44{fill:#E6B00F;}
	.st45{fill:#FFD400;}
	.st46{fill:none;stroke:#FFFFFF;stroke-width:0.5;stroke-linecap:round;stroke-linejoin:round;stroke-miterlimit:10;}
	.st47{fill:none;stroke:#FFC20E;stroke-width:0.4;stroke-miterlimit:10;}
	.st48{fill:#FFC20E;stroke:#FFC20E;stroke-width:0.4;stroke-miterlimit:10;}
	.st49{fill:#FFFFFF;}
	.st50{clip-path:url(#SVGID_00000090258552125879685670000016189095236133796771_);fill:#EB3E26;}
	.st51{clip-path:url(#SVGID_00000090258552125879685670000016189095236133796771_);fill:#EB5326;}
	.st52{clip-path:url(#SVGID_00000090258552125879685670000016189095236133796771_);fill:#EC6527;}
	.st53{clip-path:url(#SVGID_00000090258552125879685670000016189095236133796771_);fill:#EB7426;}
	.st54{clip-path:url(#SVGID_00000090258552125879685670000016189095236133796771_);fill:#E58327;}
	.st55{clip-path:url(#SVGID_00000090258552125879685670000016189095236133796771_);fill:#E39025;}
	.st56{clip-path:url(#SVGID_00000090258552125879685670000016189095236133796771_);fill:#E39E27;}
	.st57{clip-path:url(#SVGID_00000090258552125879685670000016189095236133796771_);fill:#E1AB26;}
	.st58{clip-path:url(#SVGID_00000090258552125879685670000016189095236133796771_);fill:#DBC525;}
	.st59{clip-path:url(#SVGID_00000090258552125879685670000016189095236133796771_);fill:#D9D324;}
	.st60{clip-path:url(#SVGID_00000090258552125879685670000016189095236133796771_);fill:#D6DF28;}
</style>
<g id="Layer_1">
	<path d="M52.4,56.7H3.6c-2,0-3.6-1.6-3.6-3.6V3.6C0,1.6,1.6,0,3.6,0h49.5c2,0,3.6,1.6,3.6,3.6v48.8C56.7,54.8,54.8,56.7,52.4,56.7z
		"/>
	<g>
		<path class="st9" d="M36,39.3l-0.5,0.2c-1.2,0.4-2.3,0.6-3.5,0.8c-1.2,0.2-2.4,0.3-3.7,0.3c-5,0-9.5-1.4-13.4-4.2
			c-3.8-2.7-6.6-6.2-8.4-10.5c0.7-1.6,1.5-3.2,2.5-4.6c1.1-1.5,2.3-2.9,3.6-4.1l0.7-0.6l-5.7-5.8l1.7-1.7l36.8,36.8l-1.7,1.7
			L36,39.3z M14.5,18.8c-1,0.9-2,2-2.8,3.1c-0.9,1.1-1.6,2.3-2.2,3.6l-0.2,0.4l0.2,0.4c1.8,3.6,4.4,6.5,7.7,8.6
			c3.3,2.1,7.1,3.2,11.2,3.2c0.7,0,1.4,0,2.1-0.1c0.7-0.1,1.3-0.2,2-0.3l1.6-0.2l-3.3-3.5L30.3,34c-0.3,0.1-0.7,0.2-1,0.2
			c-0.3,0-0.6,0.1-1,0.1c-2.4,0-4.3-0.8-6-2.5c-1.7-1.7-2.5-3.6-2.5-6c0-0.3,0-0.7,0.1-1c0-0.3,0.1-0.6,0.2-1l0.1-0.5l-5.3-5.1
			L14.5,18.8z M41.7,33.3c1-0.9,2-1.8,2.8-2.8c1.1-1.2,2-2.7,2.7-4.2l0.2-0.4l-0.2-0.4c-1.8-3.6-4.4-6.5-7.7-8.6
			c-3.3-2.1-7.1-3.2-11.2-3.2c-1,0-2.1,0.1-3.1,0.2c-0.8,0.1-1.7,0.3-2.5,0.5l-1.9-1.9c1-0.3,2-0.6,3-0.8c1.4-0.3,2.9-0.4,4.5-0.4
			c5,0,9.5,1.4,13.4,4.2c3.8,2.7,6.6,6.2,8.4,10.5c-0.7,1.8-1.7,3.6-2.9,5.1c-1.1,1.5-2.4,2.8-3.8,3.9L41.7,33.3z M34.7,26.3
			c0.2-1.7-0.4-3.3-1.7-4.8c-1.2-1.3-2.7-2-4.4-2c-0.2,0-0.5,0-0.7,0l-1.8-1.8c0.1,0,0.3-0.1,0.4-0.1c0.5-0.1,1.1-0.2,1.7-0.2
			c2.4,0,4.3,0.8,6,2.5c1.7,1.7,2.5,3.6,2.5,6c0,0.6-0.1,1.2-0.2,1.7c0,0.1-0.1,0.3-0.1,0.4L34.7,26.3z"/>
	</g>
</g>
<g id="Layer_2">
</g>
<g id="Layer_3">
</g>
</svg>
