<?xml version="1.0" encoding="utf-8"?>
<!-- Generator: Adobe Illustrator 28.0.0, SVG Export Plug-In . SVG Version: 6.00 Build 0)  -->
<svg version="1.1" id="Layer_1" xmlns="http://www.w3.org/2000/svg" xmlns:xlink="http://www.w3.org/1999/xlink" x="0px" y="0px"
	 viewBox="0 0 56.7 56.7" style="enable-background:new 0 0 56.7 56.7;" xml:space="preserve">
<style type="text/css">
	.st0{fill:#231F20;}
</style>
<g id="Layer_1_00000170236372598250918710000006225601333107755447_">
</g>
<g id="Layer_2_00000163794354378266106840000004198733576990707873_">
</g>
<g id="Layer_3">
	<g id="Layer_1_00000038394989223017723800000001718292674967146134_">
		<path class="st0" d="M42.5,27.1H14.2c-0.7,0-1.3,0.6-1.3,1.3l0,0c0,0.7,0.6,1.3,1.3,1.3h28.3c0.7,0,1.3-0.6,1.3-1.3l0,0
			C43.8,27.6,43.2,27.1,42.5,27.1z"/>
		<path class="st0" d="M27.1,14.2v28.3c0,0.7,0.6,1.3,1.3,1.3l0,0c0.7,0,1.3-0.6,1.3-1.3V14.2c0-0.7-0.6-1.3-1.3-1.3l0,0
			C27.6,12.9,27.1,13.5,27.1,14.2z"/>
	</g>
</g>
</svg>
