<?xml version="1.0" encoding="utf-8"?>
<!-- Generator: Adobe Illustrator 28.0.0, SVG Export Plug-In . SVG Version: 6.00 Build 0)  -->
<svg version="1.1" id="Layer_1" xmlns="http://www.w3.org/2000/svg" xmlns:xlink="http://www.w3.org/1999/xlink" x="0px" y="0px"
	 viewBox="0 0 56.7 56.7" style="enable-background:new 0 0 56.7 56.7;" xml:space="preserve">
<style type="text/css">
	.st0{fill:#231F20;}
</style>
<g id="Layer_1_00000108991422853485710160000006826761695332206213_">
</g>
<g id="Layer_2_00000008851555897623361610000007501811552990763427_">
</g>
<g id="Layer_3">
	<g id="Layer_1_00000092447087019016055440000014416296769937672874_">
		<g>
			<path class="st0" d="M36,39.3l-0.5,0.2c-1.2,0.4-2.3,0.6-3.5,0.8s-2.4,0.3-3.7,0.3c-5,0-9.5-1.4-13.4-4.2
				c-3.8-2.7-6.6-6.2-8.4-10.5C7.2,24.3,8,22.7,9,21.3c1.1-1.5,2.3-2.9,3.6-4.1l0.7-0.6l-5.7-5.8l1.7-1.7l36.8,36.8l-1.7,1.7
				L36,39.3z M14.5,18.8c-1,0.9-2,2-2.8,3.1c-0.9,1.1-1.6,2.3-2.2,3.6l-0.2,0.4l0.2,0.4c1.8,3.6,4.4,6.5,7.7,8.6
				c3.3,2.1,7.1,3.2,11.2,3.2c0.7,0,1.4,0,2.1-0.1s1.3-0.2,2-0.3l1.6-0.2L30.8,34h-0.5c-0.3,0.1-0.7,0.2-1,0.2s-0.6,0.1-1,0.1
				c-2.4,0-4.3-0.8-6-2.5s-2.5-3.6-2.5-6c0-0.3,0-0.7,0.1-1c0-0.3,0.1-0.6,0.2-1l0.1-0.5l-5.3-5.1L14.5,18.8z M41.7,33.3
				c1-0.9,2-1.8,2.8-2.8c1.1-1.2,2-2.7,2.7-4.2l0.2-0.4l-0.2-0.4c-1.8-3.6-4.4-6.5-7.7-8.6s-7.1-3.2-11.2-3.2c-1,0-2.1,0.1-3.1,0.2
				c-0.8,0.1-1.7,0.3-2.5,0.5l-1.9-1.9c1-0.3,2-0.6,3-0.8c1.4-0.3,2.9-0.4,4.5-0.4c5,0,9.5,1.4,13.4,4.2c3.8,2.7,6.6,6.2,8.4,10.5
				c-0.7,1.8-1.7,3.6-2.9,5.1c-1.1,1.5-2.4,2.8-3.8,3.9L41.7,33.3z M34.7,26.3c0.2-1.7-0.4-3.3-1.7-4.8c-1.2-1.3-2.7-2-4.4-2
				c-0.2,0-0.5,0-0.7,0l-1.8-1.8c0.1,0,0.3-0.1,0.4-0.1c0.5-0.1,1.1-0.2,1.7-0.2c2.4,0,4.3,0.8,6,2.5s2.5,3.6,2.5,6
				c0,0.6-0.1,1.2-0.2,1.7c0,0.1-0.1,0.3-0.1,0.4L34.7,26.3z"/>
		</g>
	</g>
</g>
</svg>
