<?xml version="1.0" encoding="utf-8"?>
<!-- Generator: Adobe Illustrator 28.0.0, SVG Export Plug-In . SVG Version: 6.00 Build 0)  -->
<svg version="1.1" id="Layer_1" xmlns="http://www.w3.org/2000/svg" xmlns:xlink="http://www.w3.org/1999/xlink" x="0px" y="0px"
	 viewBox="0 0 56.7 56.7" style="enable-background:new 0 0 56.7 56.7;" xml:space="preserve">
<style type="text/css">
	.st0{fill:#231F20;width:50rem;}
</style>
<g id="Layer_1_00000170967025160335106170000014403321356351430800_">
</g>
<g id="Layer_2_00000120550501606801721830000002948706874884229037_">
</g>
<g id="Layer_3">
	<g id="Layer_1_00000081610604843938435730000008543194577294385075_">
		<!-- <path class="st0" d="M40,27.1H16.6c-0.7,0-1.3,0.6-1.3,1.3l0,0c0,0.7,0.6,1.3,1.3,1.3H40c0.7,0,1.3-0.6,1.3-1.3l0,0
			C41.3,27.6,40.7,27.1,40,27.1z"/> -->
		<path class="st0" d="M40,27.1H16.6c-0.7,0-1.3,0.6-1.3,1.3v1.6c0,0.7,0.6,1.3,1.3,1.3H40c0.7,0,1.3-0.6,1.3-1.3V28.4C41.3,27.7,40.7,27.1,40,27.1z"/>
	</g>
</g>
</svg>
