<?xml version="1.0" encoding="utf-8"?>
<!-- Generator: Adobe Illustrator 28.0.0, SVG Export Plug-In . SVG Version: 6.00 Build 0)  -->
<svg version="1.1" id="Layer_1" xmlns="http://www.w3.org/2000/svg" xmlns:xlink="http://www.w3.org/1999/xlink" x="0px" y="0px"
	 viewBox="0 0 56.7 56.7" style="enable-background:new 0 0 56.7 56.7;" xml:space="preserve">
<style type="text/css">
	.st0{fill:#231F20;}
</style>
<g id="Layer_1_00000022531368273480220340000016850919035227671956_">
</g>
<g id="Layer_2_00000129914617451836610050000010165365369962351021_">
</g>
<g id="Layer_3">
	<g id="Layer_1_00000062900806264743526780000014543958000581588374_">
		<g>
			<path class="st0" d="M28.3,43c-4.8,0-9.3-1.4-13.3-4.1c-3.9-2.6-6.7-6.2-8.5-10.6c1.8-4.4,4.7-7.9,8.5-10.6
				c4-2.7,8.4-4.1,13.3-4.1c4.8,0,9.3,1.4,13.3,4.1c3.9,2.6,6.7,6.2,8.5,10.6c-1.8,4.4-4.7,7.9-8.5,10.6C37.6,41.6,33.2,43,28.3,43z
				 M28.3,16.1c-4,0-7.8,1.1-11.2,3.2s-6,5-7.8,8.6l-0.2,0.4l0.2,0.4c1.8,3.6,4.4,6.5,7.8,8.6c3.4,2.1,7.1,3.2,11.2,3.2
				s7.8-1.1,11.2-3.2c3.4-2.1,6-5,7.8-8.6l0.2-0.4L47.3,28c-1.8-3.6-4.4-6.5-7.8-8.6C36.1,17.2,32.4,16.1,28.3,16.1z M28.3,36.8
				c-2.4,0-4.3-0.8-6-2.5s-2.5-3.6-2.5-6s0.8-4.3,2.5-6s3.6-2.5,6-2.5s4.3,0.8,6,2.5s2.5,3.6,2.5,6s-0.8,4.3-2.5,6
				C32.7,36,30.7,36.8,28.3,36.8z M28.3,21.9c-1.8,0-3.3,0.6-4.6,1.9c-1.2,1.2-1.9,2.8-1.9,4.6s0.6,3.3,1.9,4.6
				c1.2,1.2,2.8,1.9,4.6,1.9s3.3-0.6,4.6-1.9c1.2-1.2,1.9-2.8,1.9-4.6s-0.6-3.3-1.9-4.6C31.7,22.6,30.1,21.9,28.3,21.9z"/>
		</g>
	</g>
</g>
</svg>
